<svg width="200" height="400" viewBox="0 0 200 400" fill="none" xmlns="http://www.w3.org/2000/svg">
<path d="M1.05571 32.2253C89.4232 32.2253 161.916 100.039 169.267 186.469H64.1642C57.9081 156.746 31.5543 134.376 -0.039093 134.376C-31.6324 134.376 -57.9863 156.746 -64.2424 186.469H-167.155C-159.726 100.039 -87.2336 32.2253 1.05571 32.2253ZM36.1681 186.469C37.7321 190.692 38.5924 195.229 38.5924 200H38.6706C38.6706 204.771 37.8104 209.308 36.2463 213.531C30.7722 228.236 16.6178 238.639 0.0391083 238.639C-16.5396 238.639 -30.694 228.158 -36.1681 213.531C-37.7322 209.308 -38.5924 204.771 -38.5924 200H-38.6706C-38.6706 195.229 -37.8104 190.692 -36.2463 186.469C-30.7722 171.764 -16.6178 161.361 -0.039093 161.361C16.5396 161.361 30.694 171.842 36.1681 186.469ZM-1.13391 367.853C-89.5015 367.853 -161.994 300.039 -169.345 213.61H-64.2424C-57.9863 243.332 -31.6324 265.702 -0.039093 265.702C31.5543 265.702 57.9081 243.332 64.1642 213.61H167.155C159.726 299.961 87.2336 367.853 -1.13391 367.853ZM-0.039093 0C-110.459 0 -200 89.5581 -200 200C-200 310.442 -110.459 400 -0.039093 400C110.381 400 200 310.52 200 200C200 89.4799 110.459 0 -0.039093 0Z" fill="white" fill-opacity="0.05"/>
</svg>
