<svg width="32" height="32" viewBox="0 0 32 32" fill="none" xmlns="http://www.w3.org/2000/svg">
<g id="telegram">
<path id="bg" d="M15.992 2.66675C8.62817 2.66675 2.65869 8.63631 2.65869 16.0001C2.65869 23.3639 8.62817 29.3334 15.992 29.3334C23.3558 29.3334 29.3254 23.3639 29.3254 16.0001C29.3254 8.63631 23.3558 2.66675 15.992 2.66675ZM20.2318 22.87C20.0384 23.3522 19.4908 23.5863 19.0086 23.3929C18.9698 23.3774 18.9321 23.3593 18.8957 23.3387L15.2762 20.5262L12.9531 22.6694C12.8436 22.7503 12.7003 22.7699 12.5732 22.7213L13.0185 18.7367L13.0327 18.748L13.0418 18.6693C13.0418 18.6693 19.5552 12.7393 19.8205 12.4867C20.0891 12.2347 20.0005 12.18 20.0005 12.18C20.0158 11.8726 19.5185 12.18 19.5185 12.18L10.8884 17.7321L7.29442 16.5081C7.29442 16.5081 6.74242 16.3101 6.69042 15.8747C6.63573 15.4427 7.31241 15.2081 7.31241 15.2081L21.6017 9.53141C21.6017 9.53141 22.7764 9.00806 22.7764 9.87476L20.2318 22.87Z" fill="white"/>
</g>
</svg>
