<svg width="48" height="48" viewBox="0 0 48 48" fill="none" xmlns="http://www.w3.org/2000/svg">
<path d="M31.4202 16.58C31.2342 16.3925 31.013 16.2438 30.7693 16.1422C30.5256 16.0407 30.2642 15.9884 30.0002 15.9884C29.7361 15.9884 29.4747 16.0407 29.231 16.1422C28.9873 16.2438 28.7661 16.3925 28.5802 16.58L24.0002 21.18L19.4202 16.58C19.0436 16.2034 18.5328 15.9918 18.0002 15.9918C17.4676 15.9918 16.9568 16.2034 16.5802 16.58C16.2036 16.9566 15.992 17.4674 15.992 18C15.992 18.5326 16.2036 19.0434 16.5802 19.42L21.1802 24L16.5802 28.58C16.3927 28.7659 16.2439 28.9871 16.1424 29.2309C16.0408 29.4746 15.9886 29.736 15.9886 30C15.9886 30.264 16.0408 30.5254 16.1424 30.7692C16.2439 31.0129 16.3927 31.2341 16.5802 31.42C16.7661 31.6075 16.9873 31.7563 17.231 31.8578C17.4747 31.9593 17.7361 32.0116 18.0002 32.0116C18.2642 32.0116 18.5256 31.9593 18.7693 31.8578C19.013 31.7563 19.2342 31.6075 19.4202 31.42L24.0002 26.82L28.5802 31.42C28.7661 31.6075 28.9873 31.7563 29.231 31.8578C29.4747 31.9593 29.7361 32.0116 30.0002 32.0116C30.2642 32.0116 30.5256 31.9593 30.7693 31.8578C31.013 31.7563 31.2342 31.6075 31.4202 31.42C31.6076 31.2341 31.7564 31.0129 31.8579 30.7692C31.9595 30.5254 32.0118 30.264 32.0118 30C32.0118 29.736 31.9595 29.4746 31.8579 29.2309C31.7564 28.9871 31.6076 28.7659 31.4202 28.58L26.8202 24L31.4202 19.42C31.6076 19.2341 31.7564 19.0129 31.8579 18.7692C31.9595 18.5254 32.0118 18.264 32.0118 18C32.0118 17.736 31.9595 17.4746 31.8579 17.2309C31.7564 16.9871 31.6076 16.7659 31.4202 16.58ZM38.1402 9.86001C36.2952 7.9498 34.0883 6.42616 31.6482 5.37798C29.2082 4.3298 26.5838 3.77807 23.9282 3.755C21.2726 3.73192 18.639 4.23795 16.1811 5.24357C13.7232 6.24919 11.4901 7.73425 9.61226 9.61211C7.73441 11.49 6.24934 13.723 5.24373 16.1809C4.23811 18.6389 3.73207 21.2724 3.75515 23.928C3.77823 26.5836 4.32995 29.208 5.37813 31.6481C6.42631 34.0882 7.94995 36.2951 9.86016 38.14C11.7051 40.0502 13.912 41.5739 16.3521 42.622C18.7921 43.6702 21.4165 44.2219 24.0721 44.245C26.7277 44.2681 29.3613 43.7621 31.8192 42.7564C34.2772 41.7508 36.5102 40.2658 38.3881 38.3879C40.2659 36.5101 41.751 34.277 42.7566 31.8191C43.7622 29.3612 44.2682 26.7276 44.2452 24.072C44.2221 21.4164 43.6704 18.792 42.6222 16.3519C41.574 13.9118 40.0504 11.7049 38.1402 9.86001ZM35.3202 35.32C32.7042 37.9388 29.2612 39.5697 25.5777 39.9346C21.8943 40.2996 18.1982 39.3761 15.1192 37.3216C12.0402 35.267 9.76888 32.2084 8.6921 28.667C7.61533 25.1255 7.79977 21.3203 9.21399 17.8996C10.6282 14.4789 13.1847 11.6543 16.4479 9.90713C19.7112 8.15996 23.4792 7.59827 27.1102 8.31775C30.7411 9.03724 34.0103 10.9934 36.3606 13.8529C38.711 16.7125 39.9972 20.2985 40.0002 24C40.0073 26.1026 39.5973 28.1857 38.794 30.1288C37.9907 32.0719 36.81 33.8363 35.3202 35.32Z" fill="white"/>
</svg>
